<svg  class="ppaCMSLogoHomePage" xmlns="http://www.w3.org/2000/svg" xmlns:xlink="http://www.w3.org/1999/xlink" viewBox="0 0 1075.51 420"><defs><style>.cls-1{fill:none;}.cls-2{clip-path:url(#clip-path);}.cls-3{clip-path:url(#clip-path-2);}.cls-4{fill:#1a5632;}.cls-5{fill:#998543;}</style><clipPath id="clip-path" transform="translate(0 0)"><rect class="cls-1" width="1075.5" height="420"/></clipPath><clipPath id="clip-path-2" transform="translate(0 0)"><rect class="cls-1" width="1075.5" height="420"/></clipPath></defs><g id="Layer_2" data-name="Layer 2"><g id="Layer_1-2" data-name="Layer 1"><g id="Gosi_logo" data-name="Gosi logo"><g class="cls-2"><g class="cls-3"><path class="cls-4" d="M8,288.87c3.15,2,4.94,2.86,5.31,2.86,0,0,1.29-1.43,4.1-4.2l-5.56-3.27c-2.41,2-3.48,3-3.29,3-.56,0-2.17-1-4.78-3Q1.17,287.37,0,288.65c2.86,1.91,4.54,2.89,5,2.89s1.33-.86,2.94-2.67m6.83,9.38s.05,0,.07-.08-.07-.07-.07.08m61.77,33.07a22,22,0,0,1-4.86-3.18c-2.13,2.46-3.42,4.16-3.91,4.87A31.83,31.83,0,0,0,70.53,335a13.71,13.71,0,0,0,2.65,1.5l1.32-1.39a22.32,22.32,0,0,1,1.77-1.73l5.13,3.12a39,39,0,0,0,4.12-5.14L80,328.14a37.34,37.34,0,0,0-3.41,3.18m43.09-17.62h-6.11c-.15,0-1.27.07-3.36.22s-3.23.3-3.43.3a4.7,4.7,0,0,1-1.66-.19A18.13,18.13,0,0,1,98,307.14c1.53-1.35,4.27-2,8.15-2a29.91,29.91,0,0,1,3.65.23,12.8,12.8,0,0,1,7.39,3.79v-1.58c0-.75-.9-2.44-2.64-5.07a13.46,13.46,0,0,0-3.58-3.33,6.75,6.75,0,0,0-4.29-1.39,4.73,4.73,0,0,0-2,.41c-3.27,1.32-6.63,4.24-10,8.71a9,9,0,0,0-1.75,3.22,17.31,17.31,0,0,0-.08,2.1,9.1,9.1,0,0,1-.12,2h-5c-3-.52-4.44-1.83-4.44-3.82a21.79,21.79,0,0,1,.34-3.08,24.26,24.26,0,0,0,.38-3.48,7.26,7.26,0,0,0-.2-1.88c-2.54,2.44-4.1,4.13-4.54,5a8.92,8.92,0,0,0-.2,3.26,19.91,19.91,0,0,1-.73,4H66.21v-.07H25.52v.07h-.39c-1.64,0-2.57-.34-2.73-1.19q-2.66-14.17-3.65-21.3c-2.27,3.89-3.58,6-3.89,6.44a15.3,15.3,0,0,1,.68,2.26c-2.27,1.41-4.15,2.62-5.69,3.44-2.85,1.66-4.61,3.19-5.12,4.62C2.93,313.92,2,316.55,2,316.32v1l11.09,2.18c1,0,2-1,2.82-2.77s1.62-2.78,2.32-3c.57,2.43,1,4.31,1.26,5.7a3.41,3.41,0,0,0,1.45,1.79,1.47,1.47,0,0,0,.94.54h54.8l2.57-4.7a6.5,6.5,0,0,0,1.56,2.86c1,1.23,2,1.84,2.8,1.84h33.18l4.41-8.14h-1.06a1.3,1.3,0,0,1-.44.11M17.94,311.48H13.79a36.78,36.78,0,0,1-5.54-1.38c1.2-.49,2.42-1.13,3.7-1.73a6.93,6.93,0,0,0,3.32-3.82,1.58,1.58,0,0,1,1.36-1.27,36.12,36.12,0,0,1,1.31,6.82Zm179.2-16.34h0m0,0a24.56,24.56,0,0,1,3.15-2.86c3.15,1.92,5,2.86,5.68,2.86a1.21,1.21,0,0,0,.71-.38,28.43,28.43,0,0,0,3.6-4.2l-6-3.15c-2.54,1.91-3.8,2.89-3.8,2.89a7.32,7.32,0,0,1-.87-.37,20.26,20.26,0,0,1-2.34-1.4,10.74,10.74,0,0,0-1.74-1.12c-.28,0-.95.6-2,1.84a17.28,17.28,0,0,0-2.27,2.74,17.69,17.69,0,0,0,4.59,2.62,3.81,3.81,0,0,1,1.33.53M250.67,306c-4.82-2.56-7.43-3.91-7.87-4.14a10.7,10.7,0,0,0-4.18-.78c-2.3,0-5.05,2.1-8.34,6.37a3.88,3.88,0,0,0-.82,1.35v.87a17.54,17.54,0,0,0,2.74-1,7.22,7.22,0,0,1,2.46-.49c2.26,0,5.65,1.29,10.26,3.6.16.16.24.19.24.27-1.08.6-1.9,1.05-2.45,1.31a27.94,27.94,0,0,1-4.58.9H224.39v-.07H211.65a3.28,3.28,0,0,1-1.72-.83,3.41,3.41,0,0,1-1.42-1.95,6.19,6.19,0,0,1,0-.86l.7-8.55c-.88.83-1.73,1.69-2.55,2.47a8.75,8.75,0,0,0-2.11,3,9.73,9.73,0,0,0-.35,3.33,7.24,7.24,0,0,1-.56,3.49H191.11v-.07h-7.26v.07H183c-1.59-1.16-3.22-3.82-4.85-8.1a3.46,3.46,0,0,1-.27-1.5,4.53,4.53,0,0,1,0-.75,3.27,3.27,0,0,0,.06-.59c0-.87-.65-1.32-2-1.32s-3.17.71-5.75,2.18a16.11,16.11,0,0,0-5.38,4.23,34.46,34.46,0,0,0-1.94,3.37c-1,1.66-1.61,2.48-1.92,2.48h-8.52v-.07H139.6a2.81,2.81,0,0,1-1.23-.38,12.06,12.06,0,0,0-1.22-.45c-.55-.15-.82-.33-.82-.63q-1.23-7.94-2.66-24.72c-.28-3.18-.48-5.36-.66-6.52-2.57,2.77-4,4.35-4.19,4.69-.67.75-1,1.27-1,1.57l3.18,34h27.6c.73,0,1.27-.54,1.81-1.58a14.19,14.19,0,0,1,1.76-2.82l15.26,8.11c.51-.08,1-.75,1.32-2s.86-1.75,1.34-1.75h21.86l2.58-4.58a8.57,8.57,0,0,0,1.26,2.55,5.31,5.31,0,0,0,2,1.57,4.68,4.68,0,0,0,1.29.46h27.42c.59,0,2.34-.91,5.32-2.63s5.31-2.44,6.94-2.33l11.44.9c.32,0,1.17-.86,2.45-2.51,1.77-2.36,2.7-3.52,2.73-3.64-2.23-.56-3.95-1.12-5.18-1.42a49.57,49.57,0,0,1-9.51-4.12m-73.89,9.18a1,1,0,0,0-.38.08,2.23,2.23,0,0,1-.62.07c-.95,0-2.34-.57-4.29-1.84a43.51,43.51,0,0,1-4-2.51,4.41,4.41,0,0,1,2.36-1.53,10.45,10.45,0,0,1,2.81-.49,3.7,3.7,0,0,1,3.27,2.17,7.49,7.49,0,0,1,.88,3.41Zm62.75,16.2,6.83,3.64,5.59-5.33a48,48,0,0,1-7-3.74ZM304,286a9.25,9.25,0,0,1-2.49-2.14,17.86,17.86,0,0,1-.63-2.66l-5.48,8.55a7.41,7.41,0,0,1,1.83,4.91,16.26,16.26,0,0,1-1.95,8.48,44.25,44.25,0,0,0-6.89-9.12,45.35,45.35,0,0,0-8.7-7.34,3.58,3.58,0,0,1-.2,2H274a33.34,33.34,0,0,0-1,4.47c0,2,.47,3.22,1.31,3.71,4.82,2.7,7.7,4.42,8.67,5a14.53,14.53,0,0,0,1.1-2.17,23.53,23.53,0,0,1,4.59,3.94,18.66,18.66,0,0,1,3.36,4.34c-4.48,4-7.44,6-8.79,6a2.79,2.79,0,0,1-2.25-1.08l-1.31-1.69a13.46,13.46,0,0,0-.78,2.66,31,31,0,0,0-.2,3.26c0,2.63.44,4.16,1.37,4.7h19.48a37.11,37.11,0,0,0,.58-6.12,16.58,16.58,0,0,0-1.92-7.31c0-.16-.12-.3-.35-.64a1.38,1.38,0,0,1-.31-.67,12.75,12.75,0,0,1,1.3-2.26,22.23,22.23,0,0,0,1.64-3.18,49.45,49.45,0,0,0,1.63-6.79,4,4,0,0,0,1.53.64,2.79,2.79,0,0,0,.56-.15c2.66-3.9,4-6.08,4-6.38s-1.42-1.42-4.27-2.92M292.6,314.41a22,22,0,0,1-3.19-.15,20.52,20.52,0,0,0,4.27-4,31.54,31.54,0,0,1,2.12,4,21.81,21.81,0,0,1-3.2.15m25.91-25.61c-1.55,2.4-2.28,3.94-2.28,4.54l3.4,28.39a21.5,21.5,0,0,0,3.7-13.73l-1.83-23.74a40.31,40.31,0,0,0-3,4.54m40.42,4.5,5.21,2.74a30.13,30.13,0,0,0,3.93-4.43l-5.4-2.81c-.28.23-.9.71-1.81,1.5a8.83,8.83,0,0,1-1.53,1.12,12.43,12.43,0,0,1-2.29-1.23,9.82,9.82,0,0,0-2.3-1.39c-.61,0-2,1.43-4.07,4.16a29.84,29.84,0,0,0,5.6,2.89,14.17,14.17,0,0,1,2.66-2.55m16,6.57-3.77,6.56c2.05,3.48,3.11,5.61,3.11,6.44a2.28,2.28,0,0,1-.55,1.05H349.49a7.37,7.37,0,0,1-3.28-1.12,5.88,5.88,0,0,1-2.66-2.22,10.08,10.08,0,0,1-.41-2.85c0-.18.09-1.23.33-3.07s.28-3.11.28-3.79l-.37-.26c-.85.49-1.87,2.4-2.83,5.63a29.38,29.38,0,0,0-1.29,7.35,9.94,9.94,0,0,0,.11,1.87,6.38,6.38,0,0,0,2.52,3.75,7.16,7.16,0,0,0,3.88,1.91,1.54,1.54,0,0,1,.47.15,2.71,2.71,0,0,0,.59.08H375c2.61-5.22,3.94-9.61,3.94-13.05a10.53,10.53,0,0,0-1.31-4.58,11.34,11.34,0,0,0-2.63-3.85m76.26-4.73c1.42,1,2.26,1.54,2.67,1.54a3.25,3.25,0,0,0,.73-.31,28.51,28.51,0,0,0,3.92-3,1.39,1.39,0,0,0,.55-.94c0-.26-.86-1.12-2.41-2.62s-2.51-2.29-2.79-2.29a1.84,1.84,0,0,0-.55.23,1.32,1.32,0,0,1-.43.22,40.24,40.24,0,0,0-3.62,3.34,1.59,1.59,0,0,0-.61,1.12c0,.46.85,1.36,2.54,2.67m23.89,36.18a20.81,20.81,0,0,1-4.84-3.18,45.63,45.63,0,0,0-3.89,4.87,19,19,0,0,0,2.69,1.95,13.55,13.55,0,0,0,2.67,1.5s.51-.53,1.31-1.39a18.71,18.71,0,0,1,1.79-1.73l5.13,3.12a45.36,45.36,0,0,0,4.1-5.14l-5.6-3.18a42.58,42.58,0,0,0-3.36,3.18m40.35-32.85c-1.48-.07-4.24.83-8.31,2.74a12.2,12.2,0,0,0-5,4.46,17.48,17.48,0,0,0-3.05,5.48,20.17,20.17,0,0,1-1.18,3H486.06c-2.85-.56-4.28-1.8-4.28-3.75a20.24,20.24,0,0,1,.37-3.08,27.2,27.2,0,0,0,.37-3.48,8.87,8.87,0,0,0-.2-1.88,28.26,28.26,0,0,0-4.55,5,11.89,11.89,0,0,0-.2,3.26,15.68,15.68,0,0,1-.74,4H463.26a3.73,3.73,0,0,1-3.28-1.53,3.54,3.54,0,0,1-.33-1.47,11.56,11.56,0,0,1,.28-2c.14-1.1.21-1.73.21-1.84v-4.73c-2.65,2.51-4.28,4.47-4.79,5.82a5.75,5.75,0,0,0-.28,2.73,5.26,5.26,0,0,1-.58,3h-12v-.07H396.17a2.88,2.88,0,0,1-1.25-.38,8.41,8.41,0,0,0-1.27-.45c-.56-.15-.81-.33-.81-.63q-1.15-7.94-2.61-24.72c-.26-3.18-.48-5.36-.65-6.52-2.54,2.77-4,4.35-4.25,4.69a3.63,3.63,0,0,0-.95,1.57l3.17,34h65.63l2.33-4.58c.92,2.36,1.88,3.67,2.89,4.12a4.31,4.31,0,0,0,1.14.46H475.2l2.57-4.7a6.71,6.71,0,0,0,1.62,2.86,3.89,3.89,0,0,0,2.76,1.84h5.93v-.12H497a8.26,8.26,0,0,0,1.93-3.27,4.46,4.46,0,0,1,2.31-2.61l13.86,5c2.14-3.22,3.51-5.4,4-6.38a4.07,4.07,0,0,0,.63-1.94,6.67,6.67,0,0,0-.25-2.14c-1.71-6.83-3.06-10.84-4-11.78m-10.73,9.45a13.43,13.43,0,0,1,2.86-1.68,5.66,5.66,0,0,1,2.1-.45,1.58,1.58,0,0,1,1,.22,6.42,6.42,0,0,1,1.64,2.36c.16,1.06.39,1.92.61,2.85ZM536,275.82c-1.64,0-2.82.07-3.61.12l-1,0c-3.22-.16-4.83-.72-4.83-1.54,0-.45.45-.79,1.26-1.2a5.55,5.55,0,0,1,1.93-.45,1.17,1.17,0,0,1,.63.11,3.38,3.38,0,0,1,1.5,1.16,9.61,9.61,0,0,0,1.26-2.17c0-1.05-.72-1.54-2.31-1.54a7.65,7.65,0,0,0-1,.07,6.19,6.19,0,0,0-4.65,4.51,5.39,5.39,0,0,0-.48,2.32,32.06,32.06,0,0,0,3.73,1.35c-1.75,1.24-2.66,2.1-2.66,2.66v.53h.76c2.74-2.25,5.41-3.34,8.11-3.34a15.52,15.52,0,0,0,1.36-2.63m21.82,19.32a28.28,28.28,0,0,1,3.18-2.86c3.13,1.92,5.08,2.86,5.65,2.86a1.32,1.32,0,0,0,.77-.38,35.16,35.16,0,0,0,3.59-4.2l-6-3.15c-2.54,1.91-3.79,2.89-3.79,2.89a3.73,3.73,0,0,1-.82-.37,13.35,13.35,0,0,1-2.4-1.4,8.17,8.17,0,0,0-1.77-1.12c-.26,0-.91.6-2.05,1.84a17,17,0,0,0-2.23,2.74,16.6,16.6,0,0,0,4.58,2.62,3.71,3.71,0,0,1,1.29.53m0,0h0m46.43-9.61a5,5,0,0,1-.57-2.8,55.71,55.71,0,0,0-5.1,8.81c1.21,1,2.09,1.65,2.63,2.1,1.25,5.4,2,9.45,2.47,12.22a48.79,48.79,0,0,1,.86,6.15c0,.38-.15,1.09-.29,2.21h-12c-1.56,0-2.3-.71-2.39-2.13-.84-9.71-1.51-17-2-21.83-.33-2.44-.57-4.46-.76-6.11l-5.57,7.68,3.28,22.39H572.48a3.3,3.3,0,0,1-1.84-.9,3.34,3.34,0,0,1-1.45-1.95,5.17,5.17,0,0,1-.06-.86l.72-8.55c-.85.83-1.69,1.69-2.6,2.47a12.18,12.18,0,0,0-2.09,3,9,9,0,0,0-.28,3.33,6.94,6.94,0,0,1-.6,3.49H551.79v-.07H539a3,3,0,0,1-1.27-.38,7.3,7.3,0,0,0-1.24-.45c-.56-.15-.79-.33-.79-.63Q534.5,304.76,533,288c-.24-3.18-.45-5.36-.63-6.52-2.58,2.77-3.94,4.35-4.22,4.69-.67.75-1,1.27-1,1.57l3.21,34H562.6l2.56-4.58a8.73,8.73,0,0,0,1.31,2.55,4.73,4.73,0,0,0,2,1.57,5,5,0,0,0,1.3.46h12.62c1.46-2,2.54-3.46,3.1-4.4a10.17,10.17,0,0,1,.62,2.37,3.23,3.23,0,0,0,.85,2h19.42a2.31,2.31,0,0,0,.65-.24c.29-.07.49-.18.59-.18l1.73-9.22-1.52-12.72c0-.41,0-.71.17-.82l3.56-4.58a12.65,12.65,0,0,0,1.67-2.43c-2.26-1.35-4-2.44-5.06-3.08a18.68,18.68,0,0,1-3.91-2.93m42.26,12.72s0,0,.1-.08-.1-.07-.1.08m-6.86-9.38c3.2,2,4.92,2.86,5.32,2.86,0,0,1.29-1.43,4.13-4.2l-5.6-3.27c-2.38,2-3.45,3-3.28,3-.57,0-2.16-1-4.77-3-1.71,2.07-3,3.53-3.76,4.39,2.87,1.91,4.57,2.89,5,2.89s1.35-.86,2.94-2.67m74.56,9.6c-1.44-.07-4.22.83-8.3,2.74a12.41,12.41,0,0,0-5,4.46,17.5,17.5,0,0,0-3,5.48,22.07,22.07,0,0,1-1.22,3H657.19v.07h-.35c-1.66,0-2.56-.34-2.73-1.19-1.81-9.45-3-16.54-3.71-21.3-2.23,3.89-3.52,6-3.81,6.44a18.27,18.27,0,0,1,.62,2.26c-2.26,1.41-4.13,2.62-5.65,3.44-2.95,1.66-4.64,3.19-5.15,4.62-1.8,5.43-2.71,8.06-2.71,7.83v1l11,2.18c1,0,2-1,2.83-2.77s1.64-2.78,2.3-3c.62,2.43,1,4.31,1.28,5.7a3.45,3.45,0,0,0,1.49,1.79,1.33,1.33,0,0,0,.88.54h33.21v-.12h9a8.35,8.35,0,0,0,1.86-3.27,4.44,4.44,0,0,1,2.32-2.61l13.85,5c2.16-3.22,3.52-5.4,4-6.38a4,4,0,0,0,.69-1.94,6.12,6.12,0,0,0-.3-2.14c-1.68-6.83-3.05-10.84-4-11.78m-64.54,13h-4.14a38.59,38.59,0,0,1-5.6-1.38c1.25-.49,2.44-1.13,3.74-1.73a7.13,7.13,0,0,0,3.34-3.82,1.49,1.49,0,0,1,1.33-1.27,35.07,35.07,0,0,1,1.33,6.82Zm53.86-3.56a13.63,13.63,0,0,1,2.85-1.68,5.55,5.55,0,0,1,2.1-.45,1.49,1.49,0,0,1,1,.22,6.67,6.67,0,0,1,1.64,2.36c.17,1.06.39,1.92.62,2.85Zm85.58-22.39a5.07,5.07,0,0,1-.57-2.8,52.23,52.23,0,0,0-5.06,8.81c1.17,1,2.06,1.65,2.62,2.1,1.22,5.4,2,9.45,2.44,12.22a48.79,48.79,0,0,1,.86,6.15,12.72,12.72,0,0,1-.29,2.21H773.53v-.63c.57-.86,1.09-1.85,1.7-2.78a5.41,5.41,0,0,0,.84-2.44c0-1.76-1-3.41-2.89-4.95a9.72,9.72,0,0,0-6-2.21,15,15,0,0,0-4.06.71c-1.1.42-2.23.75-3.34,1.13l-3.73,7.2a15,15,0,0,1,2.15-.22c2.83,0,4.92,1.38,6.45,4.19h-14v-.07H737.75a2.81,2.81,0,0,1-1.24-.38,8,8,0,0,0-1.25-.45c-.53-.15-.79-.33-.79-.63q-1.2-7.94-2.66-24.72c-.29-3.18-.46-5.36-.63-6.52a55.56,55.56,0,0,0-4.18,4.69c-.73.75-1,1.27-1,1.57l3.17,34h35.6c1.16-2.07,2-3.53,2.48-4.4l2.4,4.4h21.56a2.19,2.19,0,0,0,.67-.24c.29-.07.5-.18.62-.18l1.75-9.22-1.55-12.72c0-.41,0-.71.17-.82,1.59-2.06,2.74-3.57,3.58-4.58a12.91,12.91,0,0,0,1.65-2.43c-2.25-1.35-4-2.44-5.06-3.08a20.06,20.06,0,0,1-3.93-2.93m20.58,3.27c-1.52,2.4-2.26,3.94-2.26,4.54l3.37,28.39A21.81,21.81,0,0,0,814.54,308l-1.86-23.74a52.4,52.4,0,0,0-3,4.54m30.32.07c3.13,2,4.9,2.86,5.31,2.86,0,0,1.29-1.43,4.07-4.2l-5.54-3.27c-2.4,2-3.5,3-3.28,3-.56,0-2.15-1-4.81-3-1.7,2.07-2.93,3.53-3.73,4.39,2.82,1.91,4.52,2.89,5,2.89s1.35-.86,2.94-2.67m6.84,9.38s0,0,.09-.08-.09-.07-.09.08M958.9,306.8a13.76,13.76,0,0,0-2.14,2.85s.16.75.33,1.87a23.87,23.87,0,0,1,.39,2.7h-5.81v-2.29l1.72-7.61c-1,.86-1.95,1.8-3,2.78a12.38,12.38,0,0,0-2.3,2.74,17.58,17.58,0,0,0-.76,4.38H942a.64.64,0,0,0,.34-.3,2,2,0,0,0,.22-.33,3.06,3.06,0,0,0-.67.33,2.32,2.32,0,0,1-.85.3,5,5,0,0,1-2.89-1.53c0-.23.59-2,1.64-5.37a14.54,14.54,0,0,0,.83-4.53,49.41,49.41,0,0,0-5.93,6.45c-.11.86-.18,1.72-.21,2.62-.26,1.54-.68,2.36-1.35,2.36h-9.39v-.07h-12.5c-1,0-1.67-.27-1.92-.83a28.16,28.16,0,0,0,.87-4.35v-5.73c-.53.6-1.13,1-1.56,1.46-2.1,3-3.18,4.57-3.18,4.95,0,.11.16.67.44,1.68a9.21,9.21,0,0,1,.49,1.77,4.38,4.38,0,0,1-.11,1.12h-6.65v-2.13l2-7.77c-3.4,2.78-5.26,4.77-5.69,6v3.93h-7.32a.68.68,0,0,0,.34-.3,2.33,2.33,0,0,1,.21-.33,4.3,4.3,0,0,0-.68.33,2,2,0,0,1-.83.3,5,5,0,0,1-2.92-1.53l1.67-5.37a14.37,14.37,0,0,0,.77-4.53,51.23,51.23,0,0,0-5.91,6.45c-.06.86-.11,1.72-.15,2.62-.3,1.54-.69,2.36-1.4,2.36h-9.39v-.07H857.54v.07h-.37c-1.67,0-2.54-.34-2.71-1.19q-2.72-14.17-3.74-21.3c-2.23,3.89-3.53,6-3.8,6.44.08.19.27.94.62,2.26-2.24,1.41-4.1,2.62-5.63,3.44-3,1.66-4.64,3.19-5.13,4.62-1.88,5.43-2.75,8.06-2.75,7.83v1l11.05,2.18c1.06,0,2-1,2.82-2.77s1.63-2.78,2.26-3c.67,2.43,1.05,4.31,1.31,5.7a3.8,3.8,0,0,0,1.46,1.79,1.54,1.54,0,0,0,.94.54h23.26c.88,0,2-1,3.39-2.75a4.4,4.4,0,0,0,1.08,1.73,2.44,2.44,0,0,0,1.67,1h11.34l1.58-1.84a4.93,4.93,0,0,1,1,1.84h9.9a8,8,0,0,1,.85-2.33l1.6,2.33h21c.86,0,2-1,3.37-2.75a4.74,4.74,0,0,0,1.07,1.73,2.52,2.52,0,0,0,1.69,1h9.22a1.93,1.93,0,0,0,1.52-1c.46-.59.75-.85.85-.85s.47.52,1,1.6l9.42.24a3,3,0,0,0,.73-.24c.63-1.38,1.26-2.77,1.83-4.12a9.93,9.93,0,0,0,.85-3.45V303.24a33.08,33.08,0,0,0-3.18,3.56m-109,4.68h-4.13a35.34,35.34,0,0,1-5.54-1.38c1.18-.49,2.42-1.13,3.73-1.73a7.09,7.09,0,0,0,3.28-3.82,1.61,1.61,0,0,1,1.35-1.27,34.5,34.5,0,0,1,1.31,6.82ZM976,297.42c-2.21,1.51-3.39,2.71-3.62,3.68l.37.11c4.72-2.55,8.06-3.82,10.16-3.9a12.39,12.39,0,0,0,1.92-3.11h-7.3a5.16,5.16,0,0,1-2.76-.82,2.15,2.15,0,0,1-1-.91.77.77,0,0,0,.24-.26,1.2,1.2,0,0,1,.17-.34c.76-.45,1.29-.78,1.69-1a2.66,2.66,0,0,1,1.53-.41c.11,0,.28.1.45.1a4.88,4.88,0,0,1,2.37,1.35c1-1.87,1.44-2.77,1.44-2.55,0-1.27-.87-1.91-2.62-1.91s-3.38.9-5,2.63-2.43,3.56-2.43,5.17c0,.41.12.64.37.76a34.3,34.3,0,0,0,4,1.45m74-11.89a5.21,5.21,0,0,1-.54-2.8,55.61,55.61,0,0,0-5.12,8.81c1.24,1,2.12,1.65,2.66,2.1,1.22,5.4,2,9.45,2.46,12.22a52.72,52.72,0,0,1,.83,6.15,13.85,13.85,0,0,1-.29,2.21H1036.4c-1.58-1.16-3.2-3.82-4.84-8.1a3.32,3.32,0,0,1-.28-1.5v-.75a2.54,2.54,0,0,0,.06-.59c0-.87-.62-1.32-2-1.32s-3.19.71-5.71,2.18a16.18,16.18,0,0,0-5.43,4.23,33.17,33.17,0,0,0-2,3.37c-.93,1.66-1.62,2.48-1.9,2.48h-8.53v-.07H993.06v.07h-.18a30.88,30.88,0,0,0-3.75-12.3,6.58,6.58,0,0,0-3-2.66,2.1,2.1,0,0,0-.86-.11,3.94,3.94,0,0,0-2.57.9,16,16,0,0,0-4,5.13,41.78,41.78,0,0,0-2.36,5.33,15.57,15.57,0,0,0-1.38,5.32c0,.12,0,.49.08,1,.06.86.73,1.69,1.9,2.66a6.37,6.37,0,0,0,2.56,1.2c2.32.45,5,.79,8,1.06-4.29,4.9-8.67,7.94-13.2,9a12,12,0,0,1-3,.52c-.13,0-1.31-.33-3.55-.82-2.23-.64-3.42-.93-3.55-.93-.54,0-.93,0-1.08.18v.64a10.37,10.37,0,0,0,3.19,2.18,17.72,17.72,0,0,0,2.82,1.34c3.34,1.24,5.78,2.1,7.37,2.55a7.27,7.27,0,0,0,1.81.23,9.64,9.64,0,0,0,1.68-.23,10.23,10.23,0,0,0,4.78-2.7,18.75,18.75,0,0,0,4.5-5.73,60.88,60.88,0,0,0,2.83-6.22h20c.68,0,1.27-.54,1.84-1.58a12.21,12.21,0,0,1,1.7-2.82l15.29,8.11c.51-.08.9-.75,1.32-2s.83-1.75,1.27-1.75h18.74a2.76,2.76,0,0,0,.67-.24,6,6,0,0,1,.59-.18l1.72-9.22-1.53-12.72c0-.41,0-.71.17-.82,1.6-2.06,2.77-3.57,3.58-4.58a11,11,0,0,0,1.62-2.43c-2.22-1.35-4-2.44-5-3.08a19.38,19.38,0,0,1-3.93-2.93M986.61,312.8a1,1,0,0,0-.29.23,5.18,5.18,0,0,1-2,.29,3.31,3.31,0,0,1-1.34-.15,3.91,3.91,0,0,1-3.07-1.69,2,2,0,0,1-.68-1.57c0-.3.35-.82,1-1.61,1.08-.9,1.84-1.42,2.38-1.42a3.37,3.37,0,0,1,1.69.89,12.23,12.23,0,0,1,2.61,4.69c-.06.08-.17.15-.34.34m43.61,2.36a1.14,1.14,0,0,0-.41.08,2.29,2.29,0,0,1-.64.07,9.1,9.1,0,0,1-4.27-1.84c-1.36-.78-2.69-1.57-4-2.51.27-.56,1-1,2.35-1.53a10.28,10.28,0,0,1,2.85-.49,3.48,3.48,0,0,1,3.17,2.17,7.29,7.29,0,0,1,1,3.41Zm43.41-30.9a43.81,43.81,0,0,0-3,4.54c-1.56,2.4-2.26,3.94-2.26,4.54l3.34,28.39a21.55,21.55,0,0,0,3.75-13.73Z" transform="translate(0 0)"/><path class="cls-5" d="M37,372.38,31.89,378c-3.2-3.87-7-5.78-11.32-5.78a12.27,12.27,0,0,0-9.44,4.16,14.23,14.23,0,0,0-3.82,10,14.65,14.65,0,0,0,4,10.35A12.72,12.72,0,0,0,21,401a10.59,10.59,0,0,0,6.32-1.77,11.38,11.38,0,0,0,4.21-5.28H20.45v-7.69H39.76l0,1.84a22.19,22.19,0,0,1-2.6,10.54,19.74,19.74,0,0,1-6.71,7.57,17.41,17.41,0,0,1-9.69,2.63A20.33,20.33,0,0,1,10.1,406a20.14,20.14,0,0,1-7.38-8.21A24.22,24.22,0,0,1,0,386.4a22.23,22.23,0,0,1,5-14.54,19,19,0,0,1,15.54-7.43,21.41,21.41,0,0,1,9.34,2A20.55,20.55,0,0,1,37,372.38" transform="translate(0 0)"/><path class="cls-5" d="M74.14,394.43h-23a9,9,0,0,0,2.71,5.28,7.61,7.61,0,0,0,5.48,2,8.7,8.7,0,0,0,6.8-3l6,3.08a14.75,14.75,0,0,1-5.36,5.21,15.13,15.13,0,0,1-7.43,1.69A13.91,13.91,0,0,1,48.58,404a16.62,16.62,0,0,1-4.22-11.62,17.32,17.32,0,0,1,4.17-11.89A13.54,13.54,0,0,1,59,375.71a14,14,0,0,1,10.91,4.73c2.81,3.15,4.2,7.31,4.2,12.52Zm-7.09-6.19a7.68,7.68,0,0,0-2.8-4.2,7.17,7.17,0,0,0-4.81-1.61,8,8,0,0,0-5.25,1.8,9.74,9.74,0,0,0-2.67,4Z" transform="translate(0 0)"/><path class="cls-5" d="M79.88,376.58H87v3.15a17.43,17.43,0,0,1,4.4-3.15,10.38,10.38,0,0,1,4-.87,9.42,9.42,0,0,1,7.18,3.23c1.67,1.84,2.51,4.62,2.51,8.17v20.66H98V394.09a31.23,31.23,0,0,0-.56-7.38,4.33,4.33,0,0,0-1.54-2.82,4.08,4.08,0,0,0-2.77-1,4.93,4.93,0,0,0-3.7,1.61,8.53,8.53,0,0,0-2.16,4.43,37.11,37.11,0,0,0-.32,6.33v12.52H79.88Z" transform="translate(0 0)"/><path class="cls-5" d="M140.35,394.43H117.47a8.56,8.56,0,0,0,2.68,5.28,7.42,7.42,0,0,0,5.46,2,8.8,8.8,0,0,0,6.82-3l6,3.08a14,14,0,0,1-5.37,5.21,15,15,0,0,1-7.4,1.69A14,14,0,0,1,114.77,404a16.69,16.69,0,0,1-4.19-11.62,17.19,17.19,0,0,1,4.19-11.89,13.58,13.58,0,0,1,10.48-4.73,14,14,0,0,1,10.92,4.73c2.85,3.15,4.2,7.31,4.2,12.52Zm-7.09-6.19a7.6,7.6,0,0,0-2.75-4.2,7.28,7.28,0,0,0-4.86-1.61,8,8,0,0,0-5.25,1.8,10,10,0,0,0-2.64,4Z" transform="translate(0 0)"/><path class="cls-5" d="M144.52,376.58h6.19v3.9a8.16,8.16,0,0,1,2.6-3.56,5.78,5.78,0,0,1,3.53-1.21,5.7,5.7,0,0,1,2.79.8l-2.12,6.82a4.51,4.51,0,0,0-2.07-.76c-1,0-2,.8-2.71,2.26s-1.09,4.39-1.09,8.81l0,1.5v12.63h-7.16Z" transform="translate(0 0)"/><path class="cls-5" d="M184.25,376.58h7.07v31.19h-7.07v-3.3a12.73,12.73,0,0,1-4.23,3.15,10.19,10.19,0,0,1-4.57,1,12.11,12.11,0,0,1-9.57-4.76,17,17,0,0,1-4-11.63c0-4.83,1.3-8.77,3.93-11.88a12,12,0,0,1,9.48-4.58,10.81,10.81,0,0,1,4.82,1.06,12.28,12.28,0,0,1,4.18,3.15Zm-7.52,6.3a7.19,7.19,0,0,0-5.52,2.62,9.78,9.78,0,0,0-2.18,6.56,10,10,0,0,0,2.26,6.75,7,7,0,0,0,5.48,2.59,7.21,7.21,0,0,0,5.57-2.55,10.31,10.31,0,0,0,2.24-6.79,9.88,9.88,0,0,0-2.24-6.6,7.17,7.17,0,0,0-5.61-2.58" transform="translate(0 0)"/><rect class="cls-5" x="197.72" y="364.43" width="7.09" height="43.35"/><path class="cls-5" d="M245.13,364.43a18.13,18.13,0,0,1,14,6.49A22.74,22.74,0,0,1,265,386.74a23,23,0,0,1-5.77,15.71,18.4,18.4,0,0,1-14,6.38,18.21,18.21,0,0,1-14.33-6.61,24.35,24.35,0,0,1-3-26.76,20.79,20.79,0,0,1,7.29-8.11,18.46,18.46,0,0,1,10-2.92m-.1,7.76a11.53,11.53,0,0,0-8.95,4.13,15,15,0,0,0-3.63,10.38c0,4.65,1.49,8.36,4.58,11.1a11.8,11.8,0,0,0,8.13,3.19,11.52,11.52,0,0,0,8.83-4.12,14.89,14.89,0,0,0,3.64-10.2A15,15,0,0,0,254,376.35a11.64,11.64,0,0,0-8.93-4.16" transform="translate(0 0)"/><path class="cls-5" d="M269.52,376.58h6.1v3.9a8.66,8.66,0,0,1,2.6-3.56,5.91,5.91,0,0,1,3.53-1.21,6,6,0,0,1,2.87.8l-2.23,6.82a4.24,4.24,0,0,0-2-.76c-1.09,0-2,.8-2.72,2.26s-1.12,4.39-1.12,8.81v14.13h-7.06Z" transform="translate(0 0)"/><path class="cls-5" d="M308.91,376.58h7v26.73c0,5.3-1,9.19-2.89,11.7-2.57,3.31-6.48,5-11.75,5a17.47,17.47,0,0,1-7-1.16,12.59,12.59,0,0,1-4.8-3.37,14.12,14.12,0,0,1-2.93-5.44h7.91a6.63,6.63,0,0,0,2.68,2.1,10.31,10.31,0,0,0,3.92.67,9.25,9.25,0,0,0,4.62-1,5.48,5.48,0,0,0,2.46-2.59c.55-1,.76-2.81.76-5.44a10.68,10.68,0,0,1-8.64,4,12.48,12.48,0,0,1-9.7-4.47,17.16,17.16,0,0,1-4-11.62c0-4.87,1.36-8.88,4.19-11.92a11.94,11.94,0,0,1,9-4,12.31,12.31,0,0,1,4.67.93,15.75,15.75,0,0,1,4.41,3.31ZM301.48,383a7.08,7.08,0,0,0-5.6,2.51,10,10,0,0,0,.09,12.64,7.21,7.21,0,0,0,5.6,2.43,7,7,0,0,0,5.45-2.39,9.22,9.22,0,0,0,2.21-6.42,9,9,0,0,0-2.21-6.3,7.08,7.08,0,0,0-5.54-2.47" transform="translate(0 0)"/><path class="cls-5" d="M344,376.58h7.1v31.19H344v-3.3a12.3,12.3,0,0,1-4.18,3.15,10.53,10.53,0,0,1-4.64,1,12,12,0,0,1-9.49-4.76c-2.77-3-4.08-7-4.08-11.63a18,18,0,0,1,3.89-11.88,12,12,0,0,1,9.51-4.58,11.07,11.07,0,0,1,4.81,1.06A11.82,11.82,0,0,1,344,380Zm-7.5,6.3A7.06,7.06,0,0,0,331,385.5a9.52,9.52,0,0,0-2.16,6.56,9.93,9.93,0,0,0,2.16,6.75,7.23,7.23,0,0,0,11.06,0,10.16,10.16,0,0,0,2.25-6.79,9.74,9.74,0,0,0-2.25-6.6,7.06,7.06,0,0,0-5.58-2.58" transform="translate(0 0)"/><path class="cls-5" d="M358.2,376.58h7.07v3.15a17.77,17.77,0,0,1,4.46-3.15,9.94,9.94,0,0,1,4-.87,9.6,9.6,0,0,1,7.2,3.23c1.62,1.84,2.42,4.62,2.42,8.17v20.66H376.3V394.09a38.32,38.32,0,0,0-.46-7.38,5,5,0,0,0-1.62-2.82,4,4,0,0,0-2.76-1,5.12,5.12,0,0,0-3.74,1.61,9.15,9.15,0,0,0-2.12,4.43,36.72,36.72,0,0,0-.33,6.33v12.52H358.2Z" transform="translate(0 0)"/><path class="cls-5" d="M393,363.57a4.13,4.13,0,0,1,3.16,1.53,5.21,5.21,0,0,1,1.33,3.64,5.44,5.44,0,0,1-1.27,3.64,4.09,4.09,0,0,1-3.18,1.5,4.19,4.19,0,0,1-3.17-1.5,5.56,5.56,0,0,1-1.29-3.75,5.06,5.06,0,0,1,1.29-3.56,3.77,3.77,0,0,1,3.13-1.5m-3.48,13h7.09v31.2h-7.09Z" transform="translate(0 0)"/><polygon class="cls-5" points="401.95 376.58 423.62 376.58 411.07 401.1 422.89 401.1 422.89 407.77 399.98 407.77 412.54 383.25 401.95 383.25 401.95 376.58"/><path class="cls-5" d="M448.68,376.58h7.09v31.19h-7.09v-3.3a12.31,12.31,0,0,1-4.22,3.15,10.21,10.21,0,0,1-4.58,1,12.22,12.22,0,0,1-9.59-4.76c-2.72-3-4-7-4-11.63,0-4.83,1.29-8.77,3.91-11.88a12,12,0,0,1,9.49-4.58,11,11,0,0,1,4.84,1.06,12,12,0,0,1,4.16,3.15Zm-7.5,6.3a6.87,6.87,0,0,0-5.48,2.62,9.68,9.68,0,0,0-2.17,6.56,10.08,10.08,0,0,0,2.17,6.75,7.08,7.08,0,0,0,5.5,2.59,7.17,7.17,0,0,0,5.58-2.55,10.1,10.1,0,0,0,2.24-6.79,9.68,9.68,0,0,0-2.24-6.6,7.12,7.12,0,0,0-5.6-2.58" transform="translate(0 0)"/><polygon class="cls-5" points="463.78 364.92 470.9 364.92 470.9 376.58 475.12 376.58 475.12 383.25 470.9 383.25 470.9 407.78 463.78 407.78 463.78 383.25 460.14 383.25 460.14 376.58 463.78 376.58 463.78 364.92"/><path class="cls-5" d="M481.7,363.57a4.13,4.13,0,0,1,3.16,1.53,5.51,5.51,0,0,1,1.33,3.64,5.62,5.62,0,0,1-1.3,3.64,4.09,4.09,0,0,1-6.33,0,5.58,5.58,0,0,1-1.32-3.75,5.08,5.08,0,0,1,1.32-3.56,3.77,3.77,0,0,1,3.14-1.5m-3.5,13h7.06v31.2H478.2Z" transform="translate(0 0)"/><path class="cls-5" d="M505.06,375.72a13.34,13.34,0,0,1,7.57,2.25,15.62,15.62,0,0,1,5.54,5.92,17.86,17.86,0,0,1,2,8.25,18,18,0,0,1-2,8.25,15,15,0,0,1-5.48,6,14.2,14.2,0,0,1-7.59,2.17,13.5,13.5,0,0,1-10.45-4.8,16.69,16.69,0,0,1-4.3-11.62A16.47,16.47,0,0,1,495.21,380a13.58,13.58,0,0,1,9.85-4.27m.11,7.42a7.23,7.23,0,0,0-5.55,2.51,11.08,11.08,0,0,0,0,13.2,6.88,6.88,0,0,0,5.55,2.55,7.28,7.28,0,0,0,5.59-2.55,9.75,9.75,0,0,0,2.2-6.64,9.87,9.87,0,0,0-2.17-6.6,7.1,7.1,0,0,0-5.62-2.47" transform="translate(0 0)"/><path class="cls-5" d="M525.87,376.58H533v3.15a18.35,18.35,0,0,1,4.4-3.15,10.18,10.18,0,0,1,4-.87,9.42,9.42,0,0,1,7.18,3.23c1.68,1.84,2.46,4.62,2.46,8.17v20.66h-7V394.09a36.72,36.72,0,0,0-.52-7.38,4.71,4.71,0,0,0-1.61-2.82,4,4,0,0,0-2.74-1,5.06,5.06,0,0,0-3.73,1.61,8.83,8.83,0,0,0-2.15,4.43,37.9,37.9,0,0,0-.3,6.33v12.52h-7.1Z" transform="translate(0 0)"/><path class="cls-5" d="M569.58,376.58h2.7c0-4.13,0-6.6.14-7.39a6,6,0,0,1,2-4.08,6.79,6.79,0,0,1,4.72-1.55,13.66,13.66,0,0,1,5,1.13v6a10.22,10.22,0,0,0-2.54-.49,2.86,2.86,0,0,0-1.88.56,3.24,3.24,0,0,0-.4,1.8l-.05,4h4.58v6.67h-4.53v24.52h-7.07V383.25h-2.7Z" transform="translate(0 0)"/><path class="cls-5" d="M601.19,375.72a13.5,13.5,0,0,1,7.57,2.25,15.51,15.51,0,0,1,5.53,5.92,18.18,18.18,0,0,1,0,16.5,15.11,15.11,0,0,1-5.42,6,14.62,14.62,0,0,1-7.68,2.17,13.22,13.22,0,0,1-10.36-4.8,16.81,16.81,0,0,1-4.39-11.62,16.54,16.54,0,0,1,4.9-12.19,13.6,13.6,0,0,1,9.85-4.27m.11,7.42a7.12,7.12,0,0,0-5.52,2.51,9.63,9.63,0,0,0-2.23,6.56,9.8,9.8,0,0,0,2.2,6.64,6.81,6.81,0,0,0,5.55,2.55,7.13,7.13,0,0,0,5.54-2.55,9.68,9.68,0,0,0,2.25-6.64,9.88,9.88,0,0,0-2.2-6.6,7.15,7.15,0,0,0-5.59-2.47" transform="translate(0 0)"/><path class="cls-5" d="M620.42,376.58h6.15v3.9a8.21,8.21,0,0,1,2.63-3.56,5.74,5.74,0,0,1,3.5-1.21,5.86,5.86,0,0,1,2.86.8l-2.2,6.82a4.45,4.45,0,0,0-2-.76c-1.11,0-2,.8-2.78,2.26s-1.08,4.39-1.08,8.81v14.13h-7.11Z" transform="translate(0 0)"/><path class="cls-5" d="M675,371.29l-5.46,5.29c-1.88-2.85-3.84-4.39-5.79-4.39a3.4,3.4,0,0,0-2.38.86,2.68,2.68,0,0,0-.89,1.92,3.51,3.51,0,0,0,.61,2,56.19,56.19,0,0,0,5.37,5.47,67.53,67.53,0,0,1,5.09,4.8,15.57,15.57,0,0,1,3.17,4.76,12.5,12.5,0,0,1,.93,4.92,11.86,11.86,0,0,1-3.24,8.54,11.45,11.45,0,0,1-8.55,3.38,12.15,12.15,0,0,1-7.15-2.21,17.67,17.67,0,0,1-5.18-6.94l6.11-4.13c1.87,3.76,4,5.63,6.39,5.63a4.39,4.39,0,0,0,3.18-1.2,3.58,3.58,0,0,0,1.24-2.78,5.33,5.33,0,0,0-.94-2.85,29.67,29.67,0,0,0-4.31-4.46c-4.16-3.72-6.86-6.64-8.1-8.7a11.94,11.94,0,0,1-1.82-6.07,10.49,10.49,0,0,1,3.06-7.57,9.93,9.93,0,0,1,7.5-3.12,10.73,10.73,0,0,1,5.51,1.46,22.53,22.53,0,0,1,5.65,5.4" transform="translate(0 0)"/><path class="cls-5" d="M695.15,375.72a13.61,13.61,0,0,1,7.59,2.25,15.24,15.24,0,0,1,5.54,5.92,18,18,0,0,1,2,8.25,18.15,18.15,0,0,1-2,8.25,14.66,14.66,0,0,1-13.13,8.21,13.43,13.43,0,0,1-10.4-4.8,16.77,16.77,0,0,1-4.28-11.62A16.55,16.55,0,0,1,685.33,380a13.46,13.46,0,0,1,9.82-4.27m.13,7.42a7.18,7.18,0,0,0-5.52,2.51,9.62,9.62,0,0,0-2.21,6.56,9.74,9.74,0,0,0,2.19,6.64,6.82,6.82,0,0,0,5.49,2.55,7.33,7.33,0,0,0,5.62-2.55,10,10,0,0,0,2.22-6.64,9.73,9.73,0,0,0-2.2-6.6,7.09,7.09,0,0,0-5.59-2.47" transform="translate(0 0)"/><path class="cls-5" d="M743.85,382.76l-5.94,3.49a10,10,0,0,0-3.32-2.59,9,9,0,0,0-3.86-.78,8.54,8.54,0,0,0-6.44,2.66,9.55,9.55,0,0,0-2.49,6.79,9.4,9.4,0,0,0,2.38,6.52,8.09,8.09,0,0,0,6.27,2.55,8.81,8.81,0,0,0,7.46-3.6l5.6,4.31a14.88,14.88,0,0,1-12.89,6.49c-5,0-8.94-1.61-11.76-4.87a16.84,16.84,0,0,1-4.24-11.52,17.37,17.37,0,0,1,2-8.32,15.26,15.26,0,0,1,5.83-6,16.66,16.66,0,0,1,15.83-.35,14.88,14.88,0,0,1,5.53,5.21" transform="translate(0 0)"/><path class="cls-5" d="M752.92,363.57a4.17,4.17,0,0,1,3.21,1.53,5.71,5.71,0,0,1,0,7.28,3.94,3.94,0,0,1-3.12,1.5,4.11,4.11,0,0,1-3.2-1.5,5.68,5.68,0,0,1-1.31-3.75,5,5,0,0,1,1.31-3.56,3.85,3.85,0,0,1,3.11-1.5m-3.47,13h7.07v31.2h-7.07Z" transform="translate(0 0)"/><path class="cls-5" d="M784,376.58h7.1v31.19H784v-3.3a12.59,12.59,0,0,1-4.18,3.15,10.19,10.19,0,0,1-4.59,1,12.13,12.13,0,0,1-9.58-4.76,16.86,16.86,0,0,1-4-11.63,17.91,17.91,0,0,1,3.91-11.88,12,12,0,0,1,9.56-4.58,10.87,10.87,0,0,1,4.77,1.06A11.76,11.76,0,0,1,784,380Zm-7.5,6.3a6.87,6.87,0,0,0-5.45,2.62,9.54,9.54,0,0,0-2.27,6.56,10.19,10.19,0,0,0,2.27,6.75,7.12,7.12,0,0,0,5.45,2.59,7.2,7.2,0,0,0,5.6-2.55,10.05,10.05,0,0,0,2.24-6.79,9.63,9.63,0,0,0-2.24-6.6,7.13,7.13,0,0,0-5.6-2.58" transform="translate(0 0)"/><rect class="cls-5" x="797.46" y="364.43" width="7.13" height="43.35"/><rect class="cls-5" x="826.27" y="365.48" width="7.18" height="42.3"/><path class="cls-5" d="M840.88,376.58H848v3.15a18.19,18.19,0,0,1,4.41-3.15,10.6,10.6,0,0,1,4.07-.87,9.35,9.35,0,0,1,7.15,3.23c1.67,1.84,2.51,4.62,2.51,8.17v20.66H859V394.09a34.72,34.72,0,0,0-.45-7.38,5.12,5.12,0,0,0-1.58-2.82,4.23,4.23,0,0,0-2.78-1,5,5,0,0,0-3.73,1.61,8.82,8.82,0,0,0-2.14,4.43,42.52,42.52,0,0,0-.34,6.33v12.52h-7.08Z" transform="translate(0 0)"/><path class="cls-5" d="M890.32,380.93l-4.39,4.95c-1.84-2-3.45-3-4.89-3a3,3,0,0,0-1.87.56,1.86,1.86,0,0,0-.73,1.39,2,2,0,0,0,.48,1.24,7.11,7.11,0,0,0,2.12,1.35l2.6,1.5c2.74,1.46,4.64,2.92,5.62,4.57a9.14,9.14,0,0,1,1.56,5.36,9.34,9.34,0,0,1-2.77,7,9.83,9.83,0,0,1-7.42,2.78,11.58,11.58,0,0,1-9.86-5.29l4.35-5.29a10.21,10.21,0,0,0,2.92,2.56,5.8,5.8,0,0,0,3,1.05,3.11,3.11,0,0,0,2.29-.79,2.23,2.23,0,0,0,.92-1.72c0-1.13-1.11-2.37-3.15-3.5l-2.39-1.3c-4.59-2.63-6.86-5.82-6.86-9.6a8.6,8.6,0,0,1,2.61-6.38,8.7,8.7,0,0,1,6.58-2.63,10.35,10.35,0,0,1,5.24,1.36,12.66,12.66,0,0,1,4.08,3.86" transform="translate(0 0)"/><path class="cls-5" d="M896.42,376.58h7.07v15.11a21.32,21.32,0,0,0,.59,6.07,5.61,5.61,0,0,0,1.78,2.74,5.13,5.13,0,0,0,3,.9,5.34,5.34,0,0,0,3.12-.9,5.18,5.18,0,0,0,1.85-2.77,22.89,22.89,0,0,0,.48-5.82V376.58h7v13.16q0,8.26-1.15,11.25a12.52,12.52,0,0,1-4.24,5.66,11.82,11.82,0,0,1-7.11,2,11.55,11.55,0,0,1-7.57-2.33,11.75,11.75,0,0,1-4.05-6.37c-.57-1.87-.86-5.36-.86-10.34Z" transform="translate(0 0)"/><path class="cls-5" d="M926.93,376.58h6.15v3.9a8.07,8.07,0,0,1,2.59-3.56,5.86,5.86,0,0,1,3.55-1.21,6,6,0,0,1,2.83.8l-2.17,6.82a4.52,4.52,0,0,0-2-.76c-1.05,0-2,.8-2.73,2.26s-1.11,4.39-1.11,8.81v14.13h-7.09Z" transform="translate(0 0)"/><path class="cls-5" d="M966.64,376.58h7.1v31.19h-7.1v-3.3a12.73,12.73,0,0,1-4.23,3.15,10.17,10.17,0,0,1-4.53,1,12.21,12.21,0,0,1-9.64-4.76,17,17,0,0,1-4-11.63c0-4.83,1.26-8.77,3.92-11.88a12,12,0,0,1,9.5-4.58,10.87,10.87,0,0,1,4.8,1.06,12.28,12.28,0,0,1,4.18,3.15Zm-7.51,6.3a7,7,0,0,0-5.48,2.62,9.72,9.72,0,0,0-2.24,6.56,10.12,10.12,0,0,0,2.24,6.75,7.18,7.18,0,0,0,5.54,2.59,7.26,7.26,0,0,0,5.54-2.55,10.15,10.15,0,0,0,2.23-6.79,9.73,9.73,0,0,0-2.23-6.6,7.22,7.22,0,0,0-5.6-2.58" transform="translate(0 0)"/><path class="cls-5" d="M980.8,376.58h7.11v3.15a17.06,17.06,0,0,1,4.39-3.15,10.32,10.32,0,0,1,4-.87,9.46,9.46,0,0,1,7.2,3.23c1.63,1.84,2.48,4.62,2.48,8.17v20.66h-7.07V394.09a33.62,33.62,0,0,0-.5-7.38,4.93,4.93,0,0,0-1.56-2.82,4.08,4.08,0,0,0-2.8-1,4.92,4.92,0,0,0-3.67,1.61,8.71,8.71,0,0,0-2.2,4.43,39.52,39.52,0,0,0-.29,6.33v12.52H980.8Z" transform="translate(0 0)"/><path class="cls-5" d="M1040.76,382.76l-6,3.49a10.44,10.44,0,0,0-3.27-2.59,9.05,9.05,0,0,0-3.84-.78,8.74,8.74,0,0,0-6.48,2.66,9.62,9.62,0,0,0-2.46,6.79,9.08,9.08,0,0,0,2.37,6.52,8,8,0,0,0,6.23,2.55,8.69,8.69,0,0,0,7.45-3.6l5.66,4.31a15,15,0,0,1-12.92,6.49c-5,0-9-1.61-11.76-4.87a17,17,0,0,1-4.23-11.52,18.05,18.05,0,0,1,2-8.32,16,16,0,0,1,5.82-6,15.69,15.69,0,0,1,8.32-2.18,15.07,15.07,0,0,1,13.09,7" transform="translate(0 0)"/><path class="cls-5" d="M1075.51,394.43h-22.94a9.29,9.29,0,0,0,2.63,5.28,7.81,7.81,0,0,0,5.55,2,8.76,8.76,0,0,0,6.83-3l6,3.08a14,14,0,0,1-5.37,5.21,15.18,15.18,0,0,1-7.43,1.69,14.09,14.09,0,0,1-10.89-4.65,16.82,16.82,0,0,1-4.18-11.62,17.32,17.32,0,0,1,4.18-11.89,13.65,13.65,0,0,1,10.51-4.73,14.1,14.1,0,0,1,10.92,4.73c2.82,3.15,4.19,7.31,4.19,12.52Zm-7.08-6.19a7.73,7.73,0,0,0-2.83-4.2,7.06,7.06,0,0,0-4.81-1.61,7.92,7.92,0,0,0-5.22,1.8,9.45,9.45,0,0,0-2.67,4Z" transform="translate(0 0)"/><path class="cls-5" d="M517.37,107.84s-9.49-15-2.44-23.58L560.3,40.8,632,109.56,514.38,222.17s-102-.75-153.59-76.31c0,0-39.4-61,33.6-114.47,0,0,44.5-29.18,72.22-31.39l.78,2.92c-40.22,7.92-72.61,35.21-72.61,35.21-67.58,54.6-13.65,107.36-13.65,107.36,48.37,49.79,129.29,53.32,129.29,53.32L604,109,560,66.9,517.6,107.54Z" transform="translate(0 0)"/><path class="cls-4" d="M558.09,117.36s9.56,14.48,2.49,23l-45.38,43.5-71.61-68.7L561.15,2.48s102,.71,153.56,76.26c0,0,39.44,61-33.57,114.48,0,0-44.51,29.18-72.21,31.42l-.79-3c40.19-7.87,72.6-35.17,72.6-35.17,67.52-54.63,13.65-107.39,13.65-107.39C646,29.36,565.1,25.76,565.1,25.76l-93.57,89.85,43.93,42.14,42.47-40.69Z" transform="translate(0 0)"/><path class="cls-4" d="M556.17,83.77l-41.5,40.38s-4.88,10,2.26,22.39l37.65-37s10.61-12.79,1.59-25.8" transform="translate(0 0)"/></g></g></g></g></g></svg>